<?xml version="1.0" encoding="UTF-8" standalone="no"?>
<!DOCTYPE svg PUBLIC "-//W3C//DTD SVG 1.1//EN"
 "http://www.w3.org/Graphics/SVG/1.1/DTD/svg11.dtd">
<!-- Generated by graphviz version 2.43.0 (0)
 -->
<!-- Title: %3 Pages: 1 -->
<svg width="355pt" height="253pt"
 viewBox="0.00 0.00 354.66 253.48" xmlns="http://www.w3.org/2000/svg" xmlns:xlink="http://www.w3.org/1999/xlink">
<g id="graph0" class="graph" transform="scale(1 1) rotate(0) translate(4 249.48)">
<title>%3</title>
<polygon fill="white" stroke="transparent" points="-4,4 -4,-249.48 350.66,-249.48 350.66,4 -4,4"/>
<!-- tree -->
<g id="node1" class="node">
<title>tree</title>
<ellipse fill="none" stroke="black" cx="133.66" cy="-227.48" rx="29.8" ry="18"/>
<text text-anchor="middle" x="133.66" y="-223.78" font-family="Times,serif" font-size="14.00">tree</text>
</g>
<!-- 2 -->
<g id="node2" class="node">
<title>2</title>
<ellipse fill="none" stroke="black" cx="133.66" cy="-131.61" rx="27" ry="26.74"/>
<text text-anchor="middle" x="133.66" y="-135.41" font-family="Times,serif" font-size="14.00">b</text>
<text text-anchor="middle" x="133.66" y="-120.41" font-family="Times,serif" font-size="14.00">(2)</text>
</g>
<!-- tree&#45;&gt;2 -->
<g id="edge1" class="edge">
<title>tree&#45;&gt;2</title>
<path fill="none" stroke="green" d="M133.66,-209.26C133.66,-197.96 133.66,-182.75 133.66,-168.86"/>
<polygon fill="green" stroke="green" points="137.16,-168.58 133.66,-158.58 130.16,-168.58 137.16,-168.58"/>
<text text-anchor="middle" x="145.66" y="-180.28" font-family="Times,serif" font-size="14.00" fill="green">top</text>
</g>
<!-- 1 -->
<g id="node3" class="node">
<title>1</title>
<ellipse fill="none" stroke="black" cx="50.66" cy="-26.87" rx="27" ry="26.74"/>
<text text-anchor="middle" x="50.66" y="-30.67" font-family="Times,serif" font-size="14.00">a</text>
<text text-anchor="middle" x="50.66" y="-15.67" font-family="Times,serif" font-size="14.00">(1)</text>
</g>
<!-- tree&#45;&gt;1 -->
<g id="edge8" class="edge">
<title>tree&#45;&gt;1</title>
<path fill="none" stroke="darkcyan" d="M149.41,-211.91C174.6,-188.73 225.7,-142.24 270.66,-104.74 284.39,-93.29 305.23,-85.37 293.66,-71.74 277.78,-53.02 208.83,-58.07 184.66,-53.74 151.62,-47.82 114.1,-40.53 87.19,-35.2"/>
<polygon fill="darkcyan" stroke="darkcyan" points="87.55,-31.7 77.06,-33.19 86.19,-38.57 87.55,-31.7"/>
<text text-anchor="middle" x="288.16" y="-127.91" font-family="Times,serif" font-size="14.00" fill="darkcyan">head</text>
</g>
<!-- 3 -->
<g id="node4" class="node">
<title>3</title>
<ellipse fill="none" stroke="black" cx="220.66" cy="-26.87" rx="27" ry="26.74"/>
<text text-anchor="middle" x="220.66" y="-30.67" font-family="Times,serif" font-size="14.00">c</text>
<text text-anchor="middle" x="220.66" y="-15.67" font-family="Times,serif" font-size="14.00">(3)</text>
</g>
<!-- tree&#45;&gt;3 -->
<g id="edge9" class="edge">
<title>tree&#45;&gt;3</title>
<path fill="none" stroke="darkmagenta" d="M163.28,-224.28C203.11,-219.58 272.73,-204.8 305.66,-158.48 328.01,-127.04 328.96,-104.54 308.66,-71.74 297.34,-53.45 275.84,-42.53 256.92,-36.16"/>
<polygon fill="darkmagenta" stroke="darkmagenta" points="257.92,-32.81 247.33,-33.23 255.87,-39.5 257.92,-32.81"/>
<text text-anchor="middle" x="334.66" y="-127.91" font-family="Times,serif" font-size="14.00" fill="darkmagenta">tail</text>
</g>
<!-- 2&#45;&gt;1 -->
<g id="edge2" class="edge">
<title>2&#45;&gt;1</title>
<path fill="none" stroke="blue" d="M106.69,-130.17C75.98,-128.03 27.07,-119.34 3.66,-86.74 -5.97,-73.33 5.33,-58.83 19.25,-47.58"/>
<polygon fill="blue" stroke="blue" points="21.68,-50.14 27.61,-41.36 17.5,-44.52 21.68,-50.14"/>
<text text-anchor="middle" x="16.16" y="-75.54" font-family="Times,serif" font-size="14.00" fill="blue">left</text>
</g>
<!-- 2&#45;&gt;1 -->
<g id="edge7" class="edge">
<title>2&#45;&gt;1</title>
<path fill="none" stroke="cyan" d="M107.26,-124.44C87.87,-118.37 62.86,-106.98 50.66,-86.74 46.47,-79.78 44.88,-71.48 44.68,-63.32"/>
<polygon fill="cyan" stroke="cyan" points="48.18,-63.33 45.08,-53.2 41.19,-63.05 48.18,-63.33"/>
<text text-anchor="middle" x="67.16" y="-75.54" font-family="Times,serif" font-size="14.00" fill="cyan">prev</text>
</g>
<!-- 2&#45;&gt;3 -->
<g id="edge4" class="edge">
<title>2&#45;&gt;3</title>
<path fill="none" stroke="red" d="M142.64,-106.19C147.5,-94.97 154.24,-81.93 162.66,-71.74 170.17,-62.65 179.92,-54.35 189.28,-47.48"/>
<polygon fill="red" stroke="red" points="191.51,-50.19 197.69,-41.59 187.49,-44.46 191.51,-50.19"/>
<text text-anchor="middle" x="180.66" y="-75.54" font-family="Times,serif" font-size="14.00" fill="red">right</text>
</g>
<!-- 2&#45;&gt;3 -->
<g id="edge6" class="edge">
<title>2&#45;&gt;3</title>
<path fill="none" stroke="magenta" d="M157.76,-119.12C171.37,-111.57 187.79,-100.53 198.66,-86.74 204.15,-79.78 208.36,-71.31 211.57,-62.99"/>
<polygon fill="magenta" stroke="magenta" points="214.93,-63.99 214.88,-53.39 208.31,-61.7 214.93,-63.99"/>
<text text-anchor="middle" x="222.66" y="-75.54" font-family="Times,serif" font-size="14.00" fill="magenta">next</text>
</g>
<!-- 1&#45;&gt;2 -->
<g id="edge3" class="edge">
<title>1&#45;&gt;2</title>
<path fill="none" stroke="magenta" d="M67.15,-48.28C79.53,-63.6 96.64,-84.79 110.41,-101.83"/>
<polygon fill="magenta" stroke="magenta" points="107.86,-104.24 116.87,-109.82 113.3,-99.84 107.86,-104.24"/>
<text text-anchor="middle" x="113.66" y="-75.54" font-family="Times,serif" font-size="14.00" fill="magenta">next</text>
</g>
<!-- 3&#45;&gt;2 -->
<g id="edge5" class="edge">
<title>3&#45;&gt;2</title>
<path fill="none" stroke="cyan" d="M240.89,-45.16C252.46,-57.18 262.99,-73.39 253.66,-86.74 251.08,-90.43 203.45,-107.11 168.98,-118.8"/>
<polygon fill="cyan" stroke="cyan" points="167.57,-115.58 159.22,-122.1 169.81,-122.21 167.57,-115.58"/>
<text text-anchor="middle" x="273.16" y="-75.54" font-family="Times,serif" font-size="14.00" fill="cyan">prev</text>
</g>
</g>
</svg>
